{
.appVersion = "3225";
.formatVersion = 3;
DisplayStrings = (
"abcdefghijkl
mnopqrstuvw
xyz
ABCDEFGHIJKL
MNOPQRSTUVW
XYZS",
"hhhoohh  oooaooo
hhhahhh  ooobooo
hhhbhhh  ooocooo 
hhhchhh  ooodooo
hhhdhhh  oooeooo 
hhhehhh  ooofooo
hhhfhhh  ooogooo
hhhghhh ooohooo
hhhihhh  oooiooo
hhhjhhh ooojooo
hhhkhhh oookooo
hhhlhhh ooolooo
hhhmhhh ooomooo
hhhnhhh ooonooo
hhhohhh ooopooo
hhhphhh oooqooo
hhhqhhh ooorooo
hhhrhhh ooosooo
hhhshhh oootooo
hhhthhh ooouooo
hhhuhhh ooovooo
hhhvhhh ooowooo
hhhwhhh oooxooo
hhhxhhh oooyooo
hhhyhhh ooozooo
hhhzhhh
",
"HHHOOHH  OOOAOOO
HHHAHHH  OOOBOOO
HHHBHHH  OOOCOOO 
HHHCHHH  OOODOOO
HHHDHHH  OOOEOOO 
HHHEHHH  OOOFOOO
HHHFHHH  OOOGOOO
HHHGHHH OOOHOOO
HHIHHH  OOOIOOO
HHHJHHH OOOJOOO
HHHKHHH OOOKOOO
HHHLHHH OOOLOOO
HHHMHHH OOOMOOO
HHHNHHH OOONOOO
HHHOHHH OOOPOOO
HHHPHHH OOOQOOO
HHHQHHH OOOROOO
HHHRHHH OOOSOOO
HHHSHHH OOOTOOO
HHHTHHH OOOUOOO
HHHUHHH OOOVOOO
HHHVHHH OOOWOOO
HHHWHHH OOOXOOO
HHHXHHH OOOYOOO
HHHYHHH OOOZOOO
HHHZHHH
",
"HH HOHO OO
HHhhHOHOhhOO
HHAHOHOAOO
HHBHOHOBOO
HHCHOHOCOO
HHDHOHODOO
HHEHOHOEOO
HHFHOHOFOO
HHGHOHOGOO
HHHHOHOHOO
HHIHOHOIOO
HHJHOHOJOO
HHKHOHOKOO
HHLHOHOLOO
HHMHOHOMOO
HHNHOHONOO
HHOHOHOOOO
HHPHOHOPOO
HHQHOHOQOO
HHRHOHOROO
HHSHOHOSOO
HHTHOHOTOO
HHUHOHOUOO
HHVHOHOVOO
HHWHOHOWOO
HHXHOHOXOO
HHYHOHOYOO
HHZHOHOZOO
hh hoho oo
hhHHhohoHHoo
hhahohoaoo
hhbhohoboo
hhchohocoo
hhdhohodoo
hhehohoeoo
hhfhohofoo
hhghohogoo
hhhhohohoo
hhihohoioo
hhjhohojoo
hhkhohokoo
hhlhoholoo
hhmhohomoo
hhhhohohoo
hhohohoooo
hhphohopoo
hhqhohoqoo
hhrhohoroo
hhshohosoo
hhthohotoo
hhuhohouoo
hhvhohovoo
hhwhohowoo
hhxhohoxoo
hhyhohoyoo
hhzhohozoo",
"beautiful 
BEAUTIFUL
BeAuTIfUl

glyphs = (
{
glyphname = A;
lastChange = "2023-11-15 07:50:20 +0000";
layers = (
{
layerId = m01;
shapes = (
{
closed = 1;
nodes = (
(47,34,o),
(132,97,o),
(138,125,cs),
(153,192,o),
(172,268,o),
(191,342,cs),
(223,462,o),
(256,577,o),
(269,635,cs),
(277,673,o),
(173,566,o),
(165,531,cs),
(157,495,o),
(140,427,o),
(120,347,cs),
(98,256,o),
(73,152,o),
(54,65,cs)
);
},
{
closed = 1;
nodes = (
(14,144,o),
(-42,-26,o),
(-11,3,cs),
(7,20,o),
(39,29,o),
(70,29,cs),
(95,28,o),
(120,19,o),
(134,1,cs),
(149,-18,o),
(211,151,o),
(198,169,cs),
(183,188,o),
(156,198,o),
(127,199,cs),
(96,199,o),
(62,188,o),
(39,167,cs)
);
},
{
closed = 1;
nodes = (
(59,407,o),
(2,237,o),
(12,237,cs),
(42,237,o),
(72,239,o),
(103,237,cs),
(107,237,o),
(113,248,o),
(118,247,cs),
(175,244,o),
(231,244,o),
(287,247,cs),
(295,247,o),
(303,238,o),
(311,238,cs),
(346,240,o),
(382,238,o),
(418,238,cs),
(430,238,o),
(490,408,o),
(478,408,cs),
(443,408,o),
(407,409,o),
(371,408,cs),
(361,407,o),
(351,396,o),
(341,395,cs),
(287,393,o),
(233,390,o),
(180,393,cs),
(174,393,o),
(170,406,o),
(163,407,cs),
(133,409,o),
(103,407,o),
(72,407,cs)
);
},
{
closed = 1;
nodes = (
(367,727,o),
(224,624,o),
(238,611,cs),
(246,604,o),
(249,480,o),
(252,345,cs),
(254,240,o),
(256,128,o),
(260,61,cs),
(263,6,o),
(289,-9,o),
(331,4,cs),
(366,14,o),
(486,144,o),
(447,132,cs),
(415,123,o),
(392,132,o),
(388,185,cs),
(385,243,o),
(385,342,o),
(385,439,cs),
(386,576,o),
(387,708,o),
(380,715,cs)
);
}
);
width = 510;
}
);
unicode = 65;
},
{
glyphname = B;
lastChange = "2023-11-15 09:15:15 +0000";
layers = (
{
layerId = m01;
shapes = (
{
closed = 1;
nodes = (
(300,-3,o),
(423,143,o),
(400,147,cs),
(325,161,o),
(266,171,o),
(218,177,cs),
(125,189,o),
(77,186,o),
(51,168,cs),
(28,152,o),
(-31,-19,o),
(-3,0,cs),
(2,4,o),
(51,25,o),
(168,16,cs),
(200,13,o),
(237,9,o),
(280,1,cs)
);
},
{
closed = 1;
nodes = (
(175,627,o),
(95,576,o),
(88,535,cs),
(70,431,o),
(43,125,o),
(42,113,cs),
(38,75,o),
(115,128,o),
(118,165,cs),
(118,165,o),
(152,495,o),
(168,585,cs)
);
},
{
closed = 1;
nodes = (
(196,256,o),
(259,244,o),
(325,326,cs),
(443,472,o),
(457,570,o),
(420,632,cs),
(371,714,o),
(235,731,o),
(138,705,cs),
(115,699,o),
(23,543,o),
(52,551,cs),
(164,580,o),
(250,562,o),
(290,516,cs),
(325,475,o),
(322,410,o),
(263,338,cs)
);
},
{
closed = 1;
nodes = (
(117,500,o),
(55,331,o),
(73,323,cs),
(230,262,o),
(303,228,o),
(332,202,cs),
(359,176,o),
(344,157,o),
(319,126,cs),
(243,31,o),
(297,1,o),
(375,98,cs),
(479,229,o),
(491,302,o),
(449,352,cs),
(399,412,o),
(272,439,o),
(135,493,cs)
);
}
);
width = 501;
}
);
unicode = 66;
},
{
glyphname = C;
lastChange = "2023-11-15 07:54:19 +0000";
layers = (
{
guides = (
{
pos = (692,541);
}
);
layerId = m01;
shapes = (
{
closed = 1;
nodes = (
(414,662,o),
(284,596,o),
(233,543,cs),
(-28,271,o),
(-11,96,o),
(81,23,cs),
(151,-32,o),
(265,-29,o),
(332,35,cs),
(365,66,o),
(441,249,o),
(404,213,cs),
(335,148,o),
(226,139,o),
(180,197,cs),
(132,258,o),
(153,391,o),
(361,607,cs)
);
},
{
closed = 1;
nodes = (
(413,593,o),
(466,761,o),
(434,727,cs),
(420,713,o),
(372,704,o),
(326,707,cs),
(296,709,o),
(266,717,o),
(250,732,cs),
(234,747,o),
(170,579,o),
(186,564,cs),
(206,546,o),
(243,537,o),
(280,536,cs),
(323,535,o),
(367,545,o),
(386,565,cs)
);
}
);
width = 459;
}
);
unicode = 67;
},
{
glyphname = D;
lastChange = "2023-11-15 07:54:43 +0000";
layers = (
{
layerId = m01;
shapes = (
{
closed = 1;
nodes = (
(106,726,o),
(43,558,o),
(61,547,cs),
(244,435,o),
(329,332,o),
(358,253,cs),
(378,197,o),
(371,153,o),
(350,126,cs),
(300,59,o),
(332,32,o),
(384,100,cs),
(443,179,o),
(465,256,o),
(456,330,cs),
(440,470,o),
(313,600,o),
(123,715,cs)
);
},
{
closed = 1;
nodes = (
(34,51,o),
(113,40,o),
(120,92,cs),
(145,306,o),
(197,612,o),
(179,638,cs),
(151,680,o),
(83,638,o),
(113,594,cs),
(113,593,o),
(71,361,o),
(40,102,cs)
);
},
{
closed = 1;
nodes = (
(314,-4,o),
(433,146,o),
(393,150,cs),
(332,157,o),
(283,164,o),
(244,170,cs),
(142,185,o),
(107,193,o),
(75,167,cs),
(51,148,o),
(-6,-22,o),
(23,1,cs),
(34,9,o),
(59,17,o),
(169,10,cs),
(200,8,o),
(236,4,o),
(281,0,cs)
);
}
);
width = 503;
}
);
unicode = 68;
},
{
glyphname = E;
lastChange = "2023-11-15 11:49:00 +0000";
layers = (
{
layerId = m01;
shapes = (
{
closed = 1;
nodes = (
(175,659,o),
(100,606,o),
(97,580,cs),
(78,393,o),
(57,203,o),
(39,29,cs),
(34,-15,o),
(55,0,o),
(63,6,cs),
(90,30,o),
(121,35,o),
(170,19,cs),
(238,-2,o),
(329,-18,o),
(379,25,cs),
(402,44,o),
(448,218,o),
(421,195,cs),
(385,166,o),
(294,169,o),
(232,189,cs),
(181,205,o),
(154,206,o),
(99,160,c),
(107,152,o),
(115,144,o),
(123,137,c),
(141,311,o),
(156,469,o),
(173,630,cs)
);
},
{
closed = 1;
nodes = (
(68,438,o),
(8,268,o),
(29,268,cs),
(137,269,o),
(245,269,o),
(352,269,cs),
(372,269,o),
(434,439,o),
(412,439,cs),
(304,438,o),
(196,438,o),
(89,438,cs)
);
},
{
closed = 1;
nodes = (
(440,549,o),
(487,723,o),
(460,703,cs),
(434,684,o),
(350,696,o),
(268,702,cs),
(199,707,o),
(131,708,o),
(98,681,cs),
(75,662,o),
(31,491,o),
(56,511,cs),
(91,539,o),
(177,531,o),
(258,524,cs),
(327,518,o),
(392,513,o),
(418,533,cs)
);
}
);
width = 488;
}
);
unicode = 69;
},
{
glyphname = F;
lastChange = "2023-11-15 12:00:03 +0000";
layers = (
{
layerId = m01;
shapes = (
{
closed = 1;
nodes = (
(184.653,748.817,o),
(99.761,633.299,o),
(91.959,554.339,cs),
(74.995,382.665,o),
(60.526,238.569,o),
(45.048,81.939,cs),
(42.587,57.025,o),
(120.672,98.989,o),
(122.952,122.061,cs),
(140.808,302.764,o),
(159.672,496.002,o),
(176.041,661.661,cs)
);
},
{
closed = 1;
nodes = (
(434.549,560.879,o),
(477.748,732.769,o),
(448.872,705.302,cs),
(431,688,o),
(353,692,o),
(275,695,cs),
(204,698,o),
(133,702,o),
(109.393,689.652,cs),
(86.456,677.949,o),
(31.984,507.785,o),
(56.607,520.348,cs),
(83,534,o),
(172,524,o),
(256,520,cs),
(324,516,o),
(388,516,o),
(409.128,536.698,cs)
);
},
{
closed = 1;
nodes = (
(362.189,284.558,o),
(409.972,458.61,o),
(383.927,443.917,cs),
(364,433,o),
(291,437,o),
(220,440,cs),
(160,442,o),
(101,443,o),
(80.927,430.917,cs),
(58.138,417.577,o),
(13.052,245.021,o),
(37.073,259.083,cs),
(58,272,o),
(137,267,o),
(210,264,cs),
(268,262,o),
(322,262,o),
(340.073,272.083,cs)
);
},
{
closed = 1;
nodes = (
(18.863,142.889,o),
(-37.112,-26.811,o),
(-5.92,1.982,cs),
(14,21,o),
(51,30,o),
(83,27,cs),
(106,25,o),
(127,16,o),
(138.913,0.427,cs),
(153.978,-19.01,o),
(216.366,150.438,o),
(203.087,167.573,cs),
(185,191,o),
(151,200,o),
(116,197,cs),
(90,194,o),
(63,184,o),
(43.92,166.018,cs)
);
}
);
width = 439;
}
);
unicode = 70;
},
{
glyphname = G;
lastChange = "2023-11-15 07:55:51 +0000";
layers = (
{
layerId = m01;
shapes = (
{
closed = 1;
nodes = (
(438,660,o),
(345,642,o),
(296,599,cs),
(-8,331,o),
(-33,108,o),
(88,9,cs),
(173,-61,o),
(308,18,o),
(426,239,cs),
(478,337,o),
(417,291,o),
(366,197,cs),
(358,182,o),
(299,68,o),
(214,137,cs),
(104,228,o),
(132,390,o),
(388,615,cs)
);
},
{
closed = 1;
nodes = (
(263,351,o),
(175,219,o),
(236,267,cs),
(248,277,o),
(280,283,o),
(303,267,cs),
(319,256,o),
(330,236,o),
(328,200,cs),
(325,135,o),
(316,72,o),
(309,6,cs),
(303,-58,o),
(315,-105,o),
(350,-100,cs),
(377,-97,o),
(503,33,o),
(470,28,cs),
(447,25,o),
(444,50,o),
(451,114,cs),
(457,178,o),
(466,244,o),
(470,308,cs),
(472,348,o),
(450,385,o),
(418,402,cs),
(388,419,o),
(349,420,o),
(312,391,cs)
);
},
{
closed = 1;
nodes = (
(413,593,o),
(466,761,o),
(434,727,cs),
(421,714,o),
(380,705,o),
(338,706,cs),
(303,707,o),
(268,715,o),
(250,732,cs),
(234,747,o),
(170,579,o),
(186,564,cs),
(206,545,o),
(245,536,o),
(283,536,cs),
(325,536,o),
(367,545,o),
(386,565,cs)
);
}
);
width = 520;
}
);
unicode = 71;
},
{
glyphname = H;
lastChange = "2023-11-15 07:48:11 +0000";
layers = (
{
guides = (
{
pos = (88,-2);
},
{
pos = (189,711);
},
{
pos = (1000,217);
}
);
layerId = m01;
shapes = (
{
closed = 1;
nodes = (
(69.063,437.679,o),
(8.396,268.227,o),
(28.998,268.275,cs),
(173.331,268.608,o),
(317.665,268.942,o),
(461.998,269.275,cs),
(481.491,269.32,o),
(543.496,438.775,o),
(522.002,438.725,cs),
(377.669,438.392,o),
(233.335,438.058,o),
(89.002,437.725,cs)
);
},
{
closed = 1;
nodes = (
(152.647,701.88,o),
(23.146,570.568,o),
(61.911,580.259,cs),
(71.212,582.584,o),
(82.156,563.718,o),
(76.522,488.328,cs),
(73,441,o),
(69,393,o),
(66,345,cs),
(60,265,o),
(54,186,o),
(47.522,106.328,cs),
(42.403,39.334,o),
(65.951,-4.031,o),
(88.655,-0.117,cs),
(119.309,5.168,o),
(246.442,138.168,o),
(211.345,132.117,cs),
(176.049,126.031,o),
(187.662,154.661,o),
(192.478,217.672,cs),
(197,276,o),
(201,335,o),
(206,393,cs),
(211,462,o),
(216,531,o),
(221.478,599.672,cs),
(226.006,660.27,o),
(214.788,717.416,o),
(184.089,709.741,cs)
);
},
{
closed = 1;
nodes = (
(421.647,701.88,o),
(292.146,570.568,o),
(330.911,580.259,cs),
(340.212,582.584,o),
(351.156,563.718,o),
(345.522,488.328,cs),
(343,459,o),
(341,429,o),
(339,399,cs),
(331,302,o),
(324,204,o),
(316.522,106.328,cs),
(311.403,39.334,o),
(334.951,-4.031,o),
(357.655,-0.117,cs),
(388.309,5.168,o),
(515.442,138.168,o),
(480.345,132.117,cs),
(445.049,126.031,o),
(456.662,154.661,o),
(461.478,217.672,cs),
(466,275,o),
(470,333,o),
(475,391,cs),
(480,461,o),
(485,530,o),
(490.478,599.672,cs),
(495.006,660.27,o),
(483.788,717.416,o),
(453.089,709.741,cs)
);
}
);
width = 551;
}
);
unicode = 72;
},
{
glyphname = I;
lastChange = "2023-11-15 07:56:08 +0000";
layers = (
{
layerId = m01;
shapes = (
{
closed = 1;
nodes = (
(151,702,o),
(21,571,o),
(60,580,cs),
(69,583,o),
(80,565,o),
(75,488,cs),
(65,361,o),
(55,234,o),
(46,106,cs),
(40,39,o),
(64,-4,o),
(87,0,cs),
(117,5,o),
(244,138,o),
(209,132,cs),
(174,126,o),
(186,155,o),
(190,218,cs),
(200,345,o),
(210,472,o),
(219,600,cs),
(224,661,o),
(213,717,o),
(182,710,cs)
);
}
);
width = 265;
}
);
unicode = 73;
},
{
glyphname = J;
lastChange = "2023-11-15 07:56:50 +0000";
layers = (
{
layerId = m01;
shapes = (
{
closed = 1;
nodes = (
(113,-23,o),
(225,118,o),
(221,141,cs),
(216,161,o),
(198,190,o),
(175,213,cs),
(150,238,o),
(118,256,o),
(92,247,cs),
(64,237,o),
(-44,93,o),
(-8,105,cs),
(7,111,o),
(29,100,o),
(49,83,cs),
(77,61,o),
(102,27,o),
(107,3,cs)
);
},
{
closed = 1;
nodes = (
(332,702,o),
(202,571,o),
(241,580,cs),
(250,583,o),
(263,563,o),
(256,488,cs),
(246,399,o),
(236,309,o),
(227,219,cs),
(213,96,o),
(211,120,o),
(209,119,cs),
(138,64,o),
(66,-40,o),
(145,21,cs),
(366,193,o),
(366,281,o),
(371,331,cs),
(381,420,o),
(391,510,o),
(400,600,cs),
(407,661,o),
(394,717,o),
(363,710,cs)
);
}
);
width = 437;
}
);
unicode = 74;
},
{
glyphname = K;
lastChange = "2023-11-15 07:57:23 +0000";
layers = (
{
layerId = m01;
shapes = (
{
closed = 1;
nodes = (
(288,485,o),
(169,349,o),
(186,339,cs),
(194,334,o),
(214,268,o),
(242,195,cs),
(278,98,o),
(326,-9,o),
(377,1,cs),
(404,6,o),
(520,144,o),
(487,137,cs),
(451,130,o),
(408,221,o),
(372,309,cs),
(340,390,o),
(314,469,o),
(304,475,cs)
);
},
{
closed = 1;
nodes = (
(124,696,o),
(0,562,o),
(44,579,cs),
(54,583,o),
(61,566,o),
(56,496,cs),
(46,370,o),
(36,244,o),
(27,118,cs),
(22,54,o),
(22,0,o),
(67,0,cs),
(93,0,o),
(224,152,o),
(191,152,cs),
(168,152,o),
(167,165,o),
(171,230,cs),
(181,356,o),
(191,482,o),
(200,608,cs),
(205,663,o),
(198,723,o),
(160,709,cs)
);
},
{
closed = 1;
nodes = (
(492,572,o),
(546,740,o),
(515,711,cs),
(497,694,o),
(465,685,o),
(434,685,cs),
(409,686,o),
(384,695,o),
(370,713,cs),
(356,731,o),
(291,564,o),
(306,545,cs),
(321,526,o),
(346,517,o),
(373,515,cs),
(406,514,o),
(441,525,o),
(465,547,cs)
);
},
{
closed = 1;
nodes = (
(492,608,o),
(398,615,o),
(381,596,cs),
(371,584,o),
(308,516,o),
(240,443,cs),
(156,353,o),
(65,256,o),
(60,251,cs),
(42,231,o),
(137,225,o),
(154,243,cs),
(154,243,o),
(210,303,o),
(275,373,cs),
(363,467,o),
(466,578,o),
(475,588,cs)
);
}
);
width = 524;
}
);
unicode = 75;
},
{
glyphname = L;
lastChange = "2023-11-15 07:58:15 +0000";
layers = (
{
layerId = m01;
shapes = (
{
closed = 1;
nodes = (
(48,92,o),
(-3,-43,o),
(43,11,cs),
(70,42,o),
(122,59,o),
(169,37,cs),
(210,16,o),
(273,-19,o),
(325,18,cs),
(350,36,o),
(407,206,o),
(377,184,cs),
(337,155,o),
(304,170,o),
(263,189,cs),
(208,217,o),
(150,210,o),
(87,137,cs)
);
},
{
closed = 1;
nodes = (
(147,703,o),
(20,575,o),
(57,583,cs),
(77,587,o),
(71,561,o),
(65,490,cs),
(52,334,o),
(41,177,o),
(27,21,cs),
(24,-16,o),
(164,122,o),
(167,155,cs),
(179,303,o),
(194,450,o),
(207,598,cs),
(211,649,o),
(217,717,o),
(177,709,cs)
);
}
);
width = 421;
}
);
unicode = 76;
},
{
glyphname = M;
lastChange = "2023-11-15 07:58:44 +0000";
layers = (
{
layerId = m01;
shapes = (
{
closed = 1;
nodes = (
(281,727,o),
(160,608,o),
(171,590,cs),
(204,538,o),
(228,415,o),
(250,295,cs),
(275,160,o),
(298,28,o),
(327,1,cs),
(341,-12,o),
(462,108,o),
(447,121,cs),
(421,145,o),
(400,268,o),
(376,399,cs),
(353,523,o),
(327,654,o),
(291,710,cs)
);
},
{
closed = 1;
nodes = (
(55,67,o),
(143,109,o),
(151,134,cs),
(230,367,o),
(234,650,o),
(234,652,cs),
(236,676,o),
(163,611,o),
(162,588,cs),
(161,577,o),
(145,333,o),
(65,96,cs)
);
},
{
closed = 1;
nodes = (
(321,130,o),
(414,161,o),
(423,184,cs),
(511,405,o),
(561,617,o),
(564,638,cs),
(568,669,o),
(488,617,o),
(484,586,cs),
(483,577,o),
(415,369,o),
(331,156,cs)
);
},
{
closed = 1;
nodes = (
(618,737,o),
(489,613,o),
(489,585,cs),
(491,539,o),
(492,434,o),
(497,325,cs),
(504,168,o),
(521,4,o),
(564,1,cs),
(588,0,o),
(707,121,o),
(680,123,cs),
(648,125,o),
(634,237,o),
(627,364,cs),
(620,497,o),
(621,646,o),
(619,707,cs)
);
},
{
closed = 1;
nodes = (
(29,143,o),
(-27,-27,o),
(4,2,cs),
(22,19,o),
(57,29,o),
(90,27,cs),
(116,26,o),
(140,18,o),
(153,0,cs),
(168,-19,o),
(230,150,o),
(217,168,cs),
(202,188,o),
(172,198,o),
(141,198,cs),
(109,198,o),
(76,187,o),
(54,166,cs)
);
}
);
width = 719;
}
);
unicode = 77;
},
{
glyphname = N;
lastChange = "2023-11-15 12:13:45 +0000";
layers = (
{
layerId = m01;
shapes = (
{
closed = 1;
nodes = (
(185,728,o),
(64,609,o),
(74,591,cs),
(165,428,o),
(265,129,o),
(368,2,cs),
(380,-13,o),
(501,107,o),
(488,122,cs),
(387,247,o),
(287,546,o),
(196,709,cs)
);
},
{
closed = 1;
nodes = (
(40,95,o),
(118,101,o),
(126,121,cs),
(146,172,o),
(165,592,o),
(165,595,cs),
(166,620,o),
(97,582,o),
(95,561,cs),
(94,547,o),
(67,166,o),
(48,117,cs)
);
},
{
closed = 1;
nodes = (
(-1,145,o),
(-57,-25,o),
(-26,4,cs),
(-7,22,o),
(28,31,o),
(59,29,cs),
(83,28,o),
(106,19,o),
(119,2,cs),
(134,-17,o),
(196,152,o),
(183,170,cs),
(168,190,o),
(140,199,o),
(111,200,cs),
(80,200,o),
(47,189,o),
(24,168,cs)
);
},
{
closed = 1;
nodes = (
(540,570,o),
(594,738,o),
(563,709,cs),
(543,691,o),
(509,681,o),
(477,684,cs),
(453,686,o),
(431,694,o),
(418,711,cs),
(404,729,o),
(339,562,o),
(354,543,cs),
(371,522,o),
(401,512,o),
(433,513,cs),
(462,515,o),
(492,525,o),
(513,545,cs)
);
},
{
closed = 1;
nodes = (
(361,78,o),
(442,104,o),
(451,127,cs),
(477,193,o),
(489,570,o),
(491,592,cs),
(492,616,o),
(421,582,o),
(419,560,cs),
(419,560,o),
(386,144,o),
(371,103,cs)
);
}
);
width = 552;
}
);
unicode = 78;
},
{
glyphname = O;
lastChange = "2023-11-15 07:59:41 +0000";
layers = (
{
layerId = m01;
shapes = (
{
closed = 1;
nodes = (
(98,9,o),
(125,-55,o),
(216,19,cs),
(302,88,o),
(433,236,o),
(408,435,cs),
(398,520,o),
(359,614,o),
(277,715,cs),
(263,732,o),
(176,567,o),
(191,549,cs),
(255,470,o),
(291,403,o),
(307,347,cs),
(358,168,o),
(213,101,o),
(188,81,cs)
);
},
{
closed = 1;
nodes = (
(282,630,o),
(312,765,o),
(246,690,cs),
(179,614,o),
(-26,289,o),
(15,106,cs),
(29,46,o),
(68,2,o),
(147,-15,cs),
(183,-22,o),
(315,100,o),
(273,109,cs),
(200,124,o),
(161,160,o),
(143,206,cs),
(89,342,o),
(223,563,o),
(224,564,cs)
);
}
);
width = 436;
}
);
unicode = 79;
},
{
glyphname = P;
lastChange = "2023-11-15 12:16:04 +0000";
layers = (
{
guides = (
{
pos = (108,716);
},
{
pos = (-222,587);
},
{
pos = (-231,373);
}
);
layerId = m01;
shapes = (
{
closed = 1;
nodes = (
(192,226,o),
(261,221,o),
(325,305,cs),
(436,448,o),
(452,553,o),
(417,620,cs),
(373,704,o),
(252,731,o),
(135,707,cs),
(113,702,o),
(30,564,o),
(57,569,cs),
(188,596,o),
(268,565,o),
(298,508,cs),
(326,455,o),
(311,380,o),
(255,307,cs)
);
},
{
closed = 1;
nodes = (
(261,214,o),
(378,364,o),
(329,369,cs),
(289,374,o),
(256,378,o),
(229,383,cs),
(151,395,o),
(116,404,o),
(93,394,cs),
(71,386,o),
(12,216,o),
(35,226,cs),
(42,228,o),
(69,232,o),
(157,225,cs),
(175,223,o),
(196,221,o),
(219,219,cs)
);
},
{
closed = 1;
nodes = (
(212,629,o),
(71,519,o),
(69,492,cs),
(61,363,o),
(53,235,o),
(44,106,cs),
(40,42,o),
(53,0,o),
(84,0,cs),
(108,0,o),
(235,130,o),
(206,130,cs),
(185,130,o),
(181,150,o),
(186,214,cs),
(194,343,o),
(202,471,o),
(211,600,cs)
);
}
);
width = 439;
}
);
unicode = 80;
},
{
glyphname = Q;
lastChange = "2023-11-15 08:01:43 +0000";
layers = (
{
layerId = m01;
shapes = (
{
closed = 1;
nodes = (
(266,335,o),
(222,290,o),
(224,273,cs),
(230,232,o),
(249,161,o),
(282,99,cs),
(320,27,o),
(376,-31,o),
(447,-13,cs),
(471,-7,o),
(544,194,o),
(517,187,cs),
(466,174,o),
(410,182,o),
(364,204,cs),
(313,228,o),
(274,269,o),
(268,319,cs)
);
},
{
closed = 1;
nodes = (
(108,8,o),
(135,-56,o),
(226,18,cs),
(289,68,o),
(451,218,o),
(434,421,cs),
(427,510,o),
(385,609,o),
(287,715,cs),
(273,731,o),
(186,565,o),
(201,549,cs),
(279,465,o),
(322,397,o),
(340,341,cs),
(396,174,o),
(243,117,o),
(198,80,cs)
);
},
{
closed = 1;
nodes = (
(292,630,o),
(322,765,o),
(256,690,cs),
(186,611,o),
(-46,289,o),
(23,101,cs),
(41,50,o),
(82,8,o),
(154,-15,cs),
(186,-26,o),
(321,95,o),
(284,107,cs),
(210,131,o),
(167,168,o),
(145,211,cs),
(69,355,o),
(233,563,o),
(234,564,cs)
);
}
);
width = 553;
}
);
unicode = 81;
},
{
glyphname = R;
lastChange = "2023-11-15 12:18:59 +0000";
layers = (
{
guides = (
{
angle = 180;
pos = (357,360);
},
{
pos = (203,564);
}
);
layerId = m01;
shapes = (
{
closed = 1;
nodes = (
(199,621,o),
(128,470,o),
(130,421,cs),
(132,363,o),
(168,279,o),
(215,202,cs),
(289,80,o),
(390,-27,o),
(423,3,cs),
(448,26,o),
(504,195,o),
(473,167,cs),
(446,142,o),
(372,222,o),
(308,321,cs),
(251,409,o),
(202,512,o),
(200,575,cs)
);
},
{
closed = 1;
nodes = (
(39,143,o),
(-17,-27,o),
(14,2,cs),
(34,20,o),
(69,30,o),
(101,27,cs),
(124,25,o),
(146,17,o),
(159,0,cs),
(174,-19,o),
(236,150,o),
(223,168,cs),
(207,189,o),
(177,199,o),
(146,198,cs),
(117,197,o),
(86,186,o),
(64,166,cs)
);
},
{
closed = 1;
nodes = (
(198,642,o),
(105,560,o),
(101,462,cs),
(93,287,o),
(99,300,o),
(79,63,cs),
(75,17,o),
(154,64,o),
(157,105,cs),
(179,358,o),
(185,373,o),
(193,540,cs)
);
},
{
closed = 1;
nodes = (
(203,245,o),
(279,251,o),
(339,332,cs),
(431,455,o),
(457,543,o),
(444,604,cs),
(420,722,o),
(252,736,o),
(136,695,cs),
(112,687,o),
(21,530,o),
(50,541,cs),
(185,588,o),
(292,568,o),
(317,497,cs),
(331,457,o),
(317,399,o),
(265,328,cs)
);
}
);
width = 512;
}
);
unicode = 82;
},
{
glyphname = S;
lastChange = "2023-11-15 08:02:45 +0000";
layers = (
{
layerId = m01;
shapes = (
{
closed = 1;
nodes = (
(270,418,o),
(394,525,o),
(420,574,cs),
(435,604,o),
(430,646,o),
(409,676,cs),
(377,721,o),
(306,741,o),
(208,660,cs),
(139,603,o),
(98,526,o),
(174,588,cs),
(197,607,o),
(242,592,o),
(273,562,cs),
(298,538,o),
(314,504,o),
(296,470,cs)
);
},
{
closed = 1;
nodes = (
(209,663,o),
(83,551,o),
(65,509,cs),
(21,409,o),
(98,359,o),
(167,294,cs),
(232,234,o),
(307,188,o),
(265,86,cs),
(250,49,o),
(375,163,o),
(391,202,cs),
(443,326,o),
(354,356,o),
(289,416,cs),
(220,479,o),
(155,539,o),
(191,623,cs)
);
},
{
closed = 1;
nodes = (
(160,274,o),
(32,159,o),
(15,117,cs),
(1,81,o),
(19,27,o),
(61,0,cs),
(101,-25,o),
(163,-25,o),
(240,40,cs),
(310,99,o),
(345,171,o),
(268,106,cs),
(254,95,o),
(212,107,o),
(179,132,cs),
(148,155,o),
(126,189,o),
(141,227,cs)
);
}
);
width = 449;
}
);
unicode = 83;
},
{
glyphname = T;
lastChange = "2023-11-15 08:03:18 +0000";
layers = (
{
layerId = m01;
shapes = (
{
closed = 1;
nodes = (
(427,565,o),
(487,733,o),
(440,710,cs),
(414,698,o),
(342,704,o),
(269,708,cs),
(193,712,o),
(115,713,o),
(85,686,cs),
(61,665,o),
(18,494,o),
(43,516,cs),
(66,536,o),
(127,537,o),
(192,535,cs),
(268,534,o),
(351,528,o),
(388,546,cs)
);
},
{
closed = 1;
nodes = (
(347,628,o),
(296,646,o),
(263,602,cs),
(139,443,o),
(78,262,o),
(70,164,cs),
(61,53,o),
(126,-31,o),
(210,-14,cs),
(243,-7,o),
(374,106,o),
(336,98,cs),
(274,85,o),
(192,177,o),
(200,280,cs),
(205,336,o),
(229,475,o),
(311,582,cs)
);
}
);
width = 442;
}
);
unicode = 84;
},
{
glyphname = U;
lastChange = "2023-11-15 12:26:02 +0000";
layers = (
{
layerId = m01;
shapes = (
{
closed = 1;
nodes = (
(405,376,o),
(365,382,o),
(362,355,cs),
(335,114,o),
(263,124,o),
(251,124,cs),
(202,120,o),
(190,203,o),
(199,293,cs),
(210,394,o),
(219,495,o),
(229,596,cs),
(236,664,o),
(204,723,o),
(152,706,cs),
(119,695,o),
(-3,565,o),
(38,578,cs),
(82,593,o),
(89,550,o),
(85,502,cs),
(74,401,o),
(65,300,o),
(55,199,cs),
(44,96,o),
(107,-23,o),
(203,-16,cs),
(327,-6,o),
(387,220,o),
(402,351,cs)
);
},
{
closed = 1;
nodes = (
(425,-1,o),
(541,117,o),
(513,117,cs),
(471,117,o),
(473,199,o),
(482,293,cs),
(493,394,o),
(503,495,o),
(513,596,cs),
(520,664,o),
(487,723,o),
(435,706,cs),
(402,695,o),
(280,565,o),
(321,578,cs),
(365,593,o),
(374,550,o),
(369,502,cs),
(358,401,o),
(348,300,o),
(338,199,cs),
(326,88,o),
(348,-1,o),
(401,-1,cs)
);
}
);
width = 557;
}
);
unicode = 85;
},
{
glyphname = V;
lastChange = "2023-11-15 12:29:20 +0000";
layers = (
{
layerId = m01;
shapes = (
{
closed = 1;
nodes = (
(499,646,o),
(416,627,o),
(410,607,cs),
(351,408,o),
(261,128,o),
(247,39,cs),
(243,15,o),
(336,105,o),
(339,125,cs),
(349,188,o),
(439,442,o),
(492,623,cs)
);
},
{
closed = 1;
nodes = (
(533,572,o),
(587,740,o),
(556,711,cs),
(522,680,o),
(441,674,o),
(411,713,cs),
(397,731,o),
(332,564,o),
(347,545,cs),
(379,504,o),
(462,506,o),
(506,547,cs)
);
},
{
closed = 1;
nodes = (
(248,6,o),
(372,144,o),
(321,121,cs),
(309,115,o),
(243,487,o),
(215,635,cs),
(205,689,o),
(158,721,o),
(124,711,cs),
(92,701,o),
(-31,571,o),
(8,583,cs),
(46,595,o),
(77,563,o),
(87,511,cs),
(113,371,o),
(163,-33,o),
(203,-15,cs)
);
}
);
width = 510;
}
);
unicode = 86;
},
{
glyphname = W;
lastChange = "2023-11-15 12:29:47 +0000";
layers = (
{
layerId = m01;
shapes = (
{
closed = 1;
nodes = (
(387,-18,o),
(515,110,o),
(505,127,cs),
(477,178,o),
(466,307,o),
(455,431,cs),
(444,560,o),
(433,684,o),
(404,711,cs),
(390,724,o),
(269,605,o),
(284,591,cs),
(313,564,o),
(320,420,o),
(331,278,cs),
(339,163,o),
(350,50,o),
(377,1,cs)
);
},
{
closed = 1;
nodes = (
(679,641,o),
(589,603,o),
(580,578,cs),
(498,339,o),
(426,48,o),
(424,42,cs),
(416,14,o),
(503,97,o),
(510,122,cs),
(513,133,o),
(586,371,o),
(670,614,cs)
);
},
{
closed = 1;
nodes = (
(432,647,o),
(341,607,o),
(333,584,cs),
(293,480,o),
(188,77,o),
(188,77,cs),
(139,16,o),
(202,54,o),
(246,109,cs),
(282,154,o),
(392,542,o),
(421,618,cs)
);
},
{
closed = 1;
nodes = (
(133,-19,o),
(261,109,o),
(254,128,cs),
(230,193,o),
(226,315,o),
(219,431,cs),
(210,586,o),
(197,730,o),
(131,709,cs),
(99,700,o),
(-16,577,o),
(23,589,cs),
(73,604,o),
(81,495,o),
(87,361,cs),
(92,236,o),
(94,89,o),
(126,2,cs)
);
},
{
closed = 1;
nodes = (
(704,573,o),
(758,742,o),
(727,712,cs),
(708,694,o),
(672,685,o),
(640,687,cs),
(614,688,o),
(591,697,o),
(578,714,cs),
(564,732,o),
(500,566,o),
(514,546,cs),
(529,526,o),
(557,517,o),
(588,516,cs),
(620,516,o),
(655,527,o),
(677,548,cs)
);
}
);
width = 681;
}
);
unicode = 87;
},
{
glyphname = X;
lastChange = "2023-11-15 08:06:32 +0000";
layers = (
{
layerId = m01;
shapes = (
{
closed = 1;
nodes = (
(476,612,o),
(381,596,o),
(365,572,cs),
(357,561,o),
(311,485,o),
(259,400,cs),
(183,276,o),
(95,130,o),
(95,130,cs),
(80,105,o),
(176,124,o),
(189,146,cs),
(195,156,o),
(247,242,o),
(304,335,cs),
(370,444,o),
(443,564,o),
(459,588,cs)
);
},
{
closed = 1;
nodes = (
(402,-4,o),
(508,140,o),
(472,127,cs),
(440,115,o),
(381,275,o),
(320,431,cs),
(260,585,o),
(197,734,o),
(156,713,cs),
(123,696,o),
(19,552,o),
(60,573,cs),
(88,588,o),
(140,457,o),
(196,316,cs),
(260,151,o),
(330,-30,o),
(372,-15,cs)
);
},
{
closed = 1;
nodes = (
(85,-47,o),
(198,91,o),
(200,122,cs),
(201,145,o),
(188,172,o),
(171,196,cs),
(151,223,o),
(126,245,o),
(106,250,cs),
(88,255,o),
(-24,113,o),
(-2,108,cs),
(10,104,o),
(33,83,o),
(53,58,cs),
(72,34,o),
(87,6,o),
(86,-12,cs)
);
},
{
closed = 1;
nodes = (
(454,448,o),
(565,591,o),
(543,596,cs),
(528,600,o),
(505,622,o),
(486,647,cs),
(468,671,o),
(454,697,o),
(455,716,cs),
(456,749,o),
(343,616,o),
(341,582,cs),
(340,560,o),
(353,533,o),
(371,509,cs),
(391,481,o),
(418,458,o),
(435,454,cs)
);
}
);
width = 541;
}
);
unicode = 88;
},
{
glyphname = Y;
lastChange = "2023-11-15 08:06:51 +0000";
layers = (
{
layerId = m01;
shapes = (
{
closed = 1;
nodes = (
(514,674,o),
(426,656,o),
(407,597,cs),
(403,584,o),
(170,128,o),
(163,113,cs),
(132,53,o),
(212,51,o),
(243,111,cs),
(245,114,o),
(484,579,o),
(495,613,cs)
);
},
{
closed = 1;
nodes = (
(531,572,o),
(585,740,o),
(554,711,cs),
(535,693,o),
(501,684,o),
(469,686,cs),
(445,687,o),
(422,696,o),
(409,713,cs),
(395,731,o),
(330,564,o),
(345,545,cs),
(359,527,o),
(383,517,o),
(409,516,cs),
(442,513,o),
(479,524,o),
(504,547,cs)
);
},
{
closed = 1;
nodes = (
(272,336,o),
(381,461,o),
(327,433,cs),
(303,421,o),
(281,473,o),
(257,536,cs),
(225,621,o),
(190,726,o),
(147,709,cs),
(111,695,o),
(-9,565,o),
(35,583,cs),
(64,594,o),
(88,514,o),
(117,437,cs),
(146,360,o),
(179,287,o),
(225,311,cs)
);
},
{
closed = 1;
nodes = (
(114,143,o),
(58,-27,o),
(89,2,cs),
(108,19,o),
(141,29,o),
(173,27,cs),
(197,26,o),
(221,18,o),
(234,0,cs),
(249,-19,o),
(311,150,o),
(298,168,cs),
(284,186,o),
(260,196,o),
(234,197,cs),
(201,200,o),
(164,189,o),
(139,166,cs)
);
}
);
width = 518;
}
);
unicode = 89;
},
{
glyphname = Z;
lastChange = "2023-11-15 08:07:07 +0000";
layers = (
{
layerId = m01;
shapes = (
{
closed = 1;
nodes = (
(22,122,o),
(-25,-40,o),
(30,6,cs),
(66,38,o),
(119,26,o),
(175,13,cs),
(238,-1,o),
(304,-17,o),
(354,25,cs),
(377,44,o),
(423,218,o),
(396,195,cs),
(348,155,o),
(290,177,o),
(228,190,cs),
(175,201,o),
(120,206,o),
(66,160,cs)
);
},
{
closed = 1;
nodes = (
(97,657,o),
(42,487,o),
(76,524,cs),
(100,550,o),
(156,544,o),
(220,538,cs),
(279,532,o),
(345,525,o),
(399,540,cs),
(420,546,o),
(481,717,o),
(457,710,cs),
(400,693,o),
(335,704,o),
(275,710,cs),
(212,718,o),
(156,721,o),
(124,686,cs)
);
},
{
closed = 1;
nodes = (
(433,604,o),
(335,590,o),
(326,568,cs),
(268,426,o),
(81,211,o),
(46,100,cs),
(39,78,o),
(138,94,o),
(144,114,cs),
(177,219,o),
(364,434,o),
(424,582,cs)
);
},
{
closed = 1;
nodes = (
(135,444,o),
(76,273,o),
(104,292,cs),
(123,306,o),
(160,292,o),
(198,276,cs),
(240,259,o),
(284,240,o),
(312,252,cs),
(334,261,o),
(394,431,o),
(368,420,cs),
(349,413,o),
(321,422,o),
(291,434,cs),
(242,454,o),
(189,481,o),
(158,460,cs)
);
}
);
width = 467;
}
);
unicode = 90;
},
{
glyphname = a;
lastChange = "2023-11-15 12:18:00 +0000";
layers = (
{
guides = (
{
pos = (308,715);
}
);
layerId = m01;
shapes = (
{
closed = 1;
nodes = (
(35,-28,o),
(114,18,o),
(118,60,cs),
(132,187,o),
(156,332,o),
(164,370,cs),
(191,500,o),
(212,557,o),
(234,561,cs),
(288,571,o),
(296,499,o),
(285,409,cs),
(273,310,o),
(263,212,o),
(252,113,cs),
(244,46,o),
(260,18,o),
(289,-1,cs),
(305,-12,o),
(432,116,o),
(415,127,cs),
(390,144,o),
(391,156,o),
(396,205,cs),
(408,304,o),
(417,402,o),
(429,501,cs),
(442,603,o),
(391,732,o),
(286,713,cs),
(137,686,o),
(102,466,o),
(86,386,cs),
(78,350,o),
(54,159,o),
(40,18,cs)
);
},
{
closed = 1;
nodes = (
(54,425,o),
(-7,255,o),
(14,255,cs),
(152,256,o),
(289,256,o),
(427,256,cs),
(446,256,o),
(508,426,o),
(487,426,cs),
(349,425,o),
(212,425,o),
(74,425,cs)
);
}
);
width = 496;
}
);
unicode = 97;
},
{
glyphname = b;
lastChange = "2023-11-15 12:30:53 +0000";
layers = (
{
layerId = m01;
shapes = (
{
closed = 1;
nodes = (
(24,207,o),
(37,101,o),
(57,184,cs),
(78,272,o),
(202,319,o),
(285,296,cs),
(343,280,o),
(381,229,o),
(345,133,cs),
(323,76,o),
(433,196,o),
(453,249,cs),
(495,360,o),
(439,430,o),
(356,453,cs),
(243,486,o),
(78,432,o),
(41,278,cs)
);
},
{
closed = 1;
nodes = (
(169,400,o),
(148,357,o),
(152,337,cs),
(156,322,o),
(174,320,o),
(209,345,cs),
(276,395,o),
(324,441,o),
(357,483,cs),
(439,588,o),
(425,666,o),
(371,699,cs),
(331,723,o),
(270,723,o),
(209,691,cs),
(145,657,o),
(81,587,o),
(44,473,cs),
(10,364,o),
(88,342,o),
(124,455,cs),
(138,500,o),
(172,530,o),
(205,545,cs),
(237,559,o),
(268,560,o),
(283,548,cs),
(304,532,o),
(295,492,o),
(211,431,cs)
);
},
{
closed = 1;
nodes = (
(136,497,o),
(60,521,o),
(45,469,cs),
(20,378,o),
(11,219,o),
(11,145,cs),
(11,92,o),
(97,99,o),
(97,153,cs),
(97,213,o),
(102,372,o),
(123,449,cs)
);
},
{
closed = 1;
nodes = (
(480,334,o),
(455,354,o),
(421,257,cs),
(390,173,o),
(290,141,o),
(211,152,cs),
(138,163,o),
(84,213,o),
(128,295,cs),
(152,340,o),
(123,322,o),
(88,284,cs),
(68,261,o),
(45,231,o),
(30,203,cs),
(-28,93,o),
(46,-2,o),
(152,-13,cs),
(213,-20,o),
(267,1,o),
(313,38,cs),
(373,85,o),
(418,160,o),
(445,237,cs)
);
}
);
width = 487;
}
);
unicode = 98;
},
{
glyphname = c;
lastChange = "2023-11-15 12:31:07 +0000";
layers = (
{
layerId = m01;
shapes = (
{
closed = 1;
nodes = (
(334,455,o),
(446,596,o),
(441,619,cs),
(434,644,o),
(402,710,o),
(342,715,cs),
(298,719,o),
(240,692,o),
(167,594,cs),
(11,386,o),
(-11,187,o),
(40,76,cs),
(90,-34,o),
(212,-57,o),
(347,82,cs),
(392,128,o),
(415,177,o),
(414,199,cs),
(412,217,o),
(392,215,o),
(351,172,cs),
(291,110,o),
(234,132,o),
(196,191,cs),
(140,274,o),
(123,433,o),
(193,526,cs),
(206,543,o),
(237,557,o),
(267,551,cs),
(292,546,o),
(317,526,o),
(327,481,cs)
);
}
);
width = 456;
}
);
unicode = 99;
},
{
glyphname = d;
lastChange = "2023-11-15 12:14:15 +0000";
layers = (
{
layerId = m01;
shapes = (
{
closed = 1;
nodes = (
(92,731,o),
(29,563,o),
(46,550,cs),
(205,423,o),
(295,320,o),
(319,215,cs),
(334,151,o),
(323,87,o),
(289,15,cs),
(265,-35,o),
(390,74,o),
(413,121,cs),
(450,197,o),
(456,267,o),
(437,334,cs),
(402,463,o),
(279,582,o),
(108,718,cs)
);
},
{
closed = 1;
nodes = (
(166,591,o),
(90,569,o),
(87,547,cs),
(66,395,o),
(44,243,o),
(23,91,cs),
(20,69,o),
(96,92,o),
(99,113,cs),
(120,265,o),
(142,417,o),
(163,569,cs)
);
},
{
closed = 1;
nodes = (
(59,223,o),
(-5,55,o),
(13,42,cs),
(54,10,o),
(105,-10,o),
(160,-15,cs),
(203,-19,o),
(249,-13,o),
(292,3,cs),
(313,11,o),
(371,183,o),
(346,173,cs),
(299,155,o),
(249,150,o),
(201,158,cs),
(155,164,o),
(112,182,o),
(75,210,cs)
);
}
);
width = 463;
}
);
unicode = 100;
},
{
glyphname = e;
lastChange = "2023-11-15 12:28:50 +0000";
layers = (
{
layerId = m01;
shapes = (
{
closed = 1;
nodes = (
(306,455,o),
(433,583,o),
(426,602,cs),
(388,705,o),
(313,730,o),
(262,706,cs),
(159,658,o),
(106,523,o),
(75,387,cs),
(43,241,o),
(38,92,o),
(28,41,cs),
(17,-16,o),
(37,-1,o),
(39,0,cs),
(84,15,o),
(116,23,o),
(166,14,cs),
(226,4,o),
(307,-27,o),
(372,26,cs),
(414,61,o),
(455,227,o),
(404,186,cs),
(381,167,o),
(282,174,o),
(226,184,cs),
(182,191,o),
(146,193,o),
(101,176,c),
(104,163,o),
(108,149,o),
(112,135,c),
(161,387,o),
(178,538,o),
(212,554,cs),
(238,566,o),
(262,572,o),
(298,476,cs)
);
},
{
closed = 1;
nodes = (
(58,438,o),
(-2,268,o),
(19,268,cs),
(127,269,o),
(235,269,o),
(342,269,cs),
(362,269,o),
(424,439,o),
(402,439,cs),
(294,438,o),
(186,438,o),
(79,438,cs)
);
}
);
width = 463;
}
);
unicode = 101;
},
{
glyphname = f;
lastChange = "2023-11-15 11:53:47 +0000";
layers = (
{
layerId = m01;
shapes = (
{
closed = 1;
nodes = (
(439,604,o),
(475,759,o),
(431,701,cs),
(410,674,o),
(347,659,o),
(305,659,cs),
(250,659,o),
(188,681,o),
(155,710,cs),
(125,738,o),
(76,578,o),
(76,574,cs),
(58,384,o),
(40,201,o),
(23,18,cs),
(18,-28,o),
(98,19,o),
(101,60,cs),
(121,271,o),
(141,480,o),
(160,684,c),
(134,638,o),
(107,593,o),
(81,548,c),
(120,511,o),
(188,489,o),
(245,489,cs),
(299,489,o),
(348,486,o),
(399,553,cs)
);
},
{
closed = 1;
nodes = (
(339,226,o),
(389,399,o),
(368,400,cs),
(270,400,o),
(171,401,o),
(73,402,cs),
(54,402,o),
(4,229,o),
(25,228,cs),
(123,228,o),
(222,227,o),
(320,226,cs)
);
}
);
width = 431;
}
);
unicode = 102;
},
{
glyphname = g;
lastChange = "2023-11-15 07:03:41 +0000";
layers = (
{
layerId = m01;
shapes = (
{
closed = 1;
nodes = (
(277,350,o),
(189,218,o),
(250,266,cs),
(265,279,o),
(306,288,o),
(328,264,cs),
(338,253,o),
(344,236,o),
(342,209,cs),
(340,168,o),
(332,126,o),
(327,85,cs),
(319,14,o),
(343,-5,o),
(351,-14,cs),
(364,-29,o),
(492,98,o),
(479,112,cs),
(473,119,o),
(461,128,o),
(469,193,cs),
(473,234,o),
(481,275,o),
(484,317,cs),
(485,348,o),
(473,375,o),
(454,392,cs),
(422,420,o),
(371,425,o),
(326,390,cs)
);
},
{
closed = 1;
nodes = (
(363,483,o),
(490,611,o),
(479,626,cs),
(433,689,o),
(382,720,o),
(329,717,cs),
(273,713,o),
(215,673,o),
(156,591,cs),
(0,375,o),
(-8,134,o),
(64,33,cs),
(109,-30,o),
(183,-39,o),
(272,44,cs),
(319,88,o),
(429,316,o),
(431,321,cs),
(446,367,o),
(378,348,o),
(363,303,cs),
(326,191,o),
(291,161,o),
(290,160,cs),
(238,111,o),
(199,124,o),
(175,167,cs),
(126,252,o),
(132,454,o),
(190,535,cs),
(192,537,o),
(215,581,o),
(259,574,cs),
(283,570,o),
(314,550,o),
(351,500,cs)
);
}
);
width = 524;
}
);
unicode = 103;
},
{
glyphname = h;
lastChange = "2023-11-15 07:06:45 +0000";
layers = (
{
layerId = m01;
shapes = (
{
closed = 1;
nodes = (
(69,437,o),
(8,267,o),
(29,267,cs),
(173,268,o),
(318,268,o),
(462,268,cs),
(481,268,o),
(543,438,o),
(522,438,cs),
(378,437,o),
(233,437,o),
(89,437,cs)
);
},
{
closed = 1;
nodes = (
(190,726,o),
(60,603,o),
(70,584,cs),
(87,552,o),
(88,548,o),
(83,500,cs),
(72,369,o),
(64,237,o),
(54,106,cs),
(49,39,o),
(63,20,o),
(92,0,cs),
(108,-11,o),
(235,116,o),
(218,128,cs),
(195,144,o),
(191,153,o),
(196,214,cs),
(206,345,o),
(213,477,o),
(225,608,cs),
(229,662,o),
(219,674,o),
(200,708,cs)
);
},
{
closed = 1;
nodes = (
(458,726,o),
(328,603,o),
(338,584,cs),
(355,553,o),
(355,548,o),
(351,500,cs),
(341,369,o),
(332,237,o),
(322,106,cs),
(317,39,o),
(331,20,o),
(360,0,cs),
(376,-11,o),
(503,116,o),
(486,128,cs),
(463,144,o),
(459,153,o),
(464,214,cs),
(474,345,o),
(483,477,o),
(493,608,cs),
(497,662,o),
(487,673,o),
(468,708,cs)
);
}
);
width = 551;
}
);
unicode = 104;
},
{
glyphname = i;
lastChange = "2023-11-15 07:05:04 +0000";
layers = (
{
layerId = m01;
shapes = (
{
closed = 1;
nodes = (
(182,726,o),
(52,603,o),
(62,584,cs),
(79,553,o),
(80,548,o),
(75,490,cs),
(65,362,o),
(56,234,o),
(46,106,cs),
(41,39,o),
(55,20,o),
(84,0,cs),
(100,-11,o),
(227,116,o),
(210,128,cs),
(187,144,o),
(183,153,o),
(188,214,cs),
(197,342,o),
(206,470,o),
(217,598,cs),
(222,662,o),
(211,673,o),
(192,708,cs)
);
}
);
width = 263;
}
);
unicode = 105;
},
{
glyphname = j;
lastChange = "2023-11-15 07:07:18 +0000";
layers = (
{
layerId = m01;
shapes = (
{
closed = 1;
nodes = (
(149,307,o),
(20,198,o),
(-2,153,cs),
(-33,90,o),
(-5,22,o),
(50,-5,cs),
(103,-30,o),
(180,-17,o),
(254,77,cs),
(303,141,o),
(308,230,o),
(254,161,cs),
(220,118,o),
(163,115,o),
(131,143,cs),
(107,165,o),
(98,204,o),
(124,257,cs)
);
},
{
closed = 1;
nodes = (
(435,741,o),
(299,652,o),
(274,597,cs),
(263,572,o),
(263,566,o),
(257,506,cs),
(247,379,o),
(239,253,o),
(229,126,cs),
(221,13,o),
(279,132,o),
(278,131,cs),
(226,99,o),
(123,-24,o),
(186,15,cs),
(271,67,o),
(368,203,o),
(371,234,cs),
(380,361,o),
(388,488,o),
(399,614,cs),
(404,676,o),
(405,674,o),
(410,685,cs)
);
},
{
closed = 1;
nodes = (
(354,618,o),
(419,727,o),
(366,685,cs),
(340,664,o),
(308,659,o),
(279,663,cs),
(235,668,o),
(196,692,o),
(187,713,cs),
(178,735,o),
(75,590,o),
(85,567,cs),
(92,549,o),
(126,530,o),
(172,530,cs),
(211,529,o),
(260,542,o),
(308,581,cs)
);
}
);
width = 433;
}
);
unicode = 106;
},
{
glyphname = k;
lastChange = "2023-11-15 07:09:18 +0000";
layers = (
{
layerId = m01;
shapes = (
{
closed = 1;
nodes = (
(206,373,o),
(99,236,o),
(144,260,cs),
(218,299,o),
(275,280,o),
(314,237,cs),
(370,176,o),
(392,67,o),
(379,6,cs),
(371,-33,o),
(491,97,o),
(499,132,cs),
(512,195,o),
(492,315,o),
(429,378,cs),
(387,419,o),
(326,436,o),
(244,392,cs)
);
},
{
closed = 1;
nodes = (
(157,721,o),
(26,591,o),
(42,578,cs),
(47,575,o),
(65,551,o),
(61,496,cs),
(51,370,o),
(41,244,o),
(32,118,cs),
(26,48,o),
(33,20,o),
(69,0,cs),
(89,-11,o),
(220,140,o),
(199,152,cs),
(185,160,o),
(172,170,o),
(176,230,cs),
(186,356,o),
(196,482,o),
(205,608,cs),
(211,677,o),
(183,701,o),
(172,710,cs)
);
},
{
closed = 1;
nodes = (
(546,722,o),
(441,712,o),
(421,690,cs),
(393,658,o),
(138,320,o),
(134,315,cs),
(96,266,o),
(168,249,o),
(204,295,cs),
(210,303,o),
(511,682,o),
(525,698,cs)
);
}
);
width = 538;
}
);
unicode = 107;
},
{
glyphname = l;
lastChange = "2023-11-15 11:57:15 +0000";
layers = (
{
layerId = m01;
shapes = (
{
closed = 1;
nodes = (
(167,721,o),
(36,591,o),
(52,578,cs),
(57,575,o),
(75,551,o),
(71,496,cs),
(61,370,o),
(51,244,o),
(42,118,cs),
(37,54,o),
(37,0,o),
(82,0,cs),
(108,0,o),
(239,152,o),
(206,152,cs),
(183,152,o),
(182,165,o),
(186,230,cs),
(196,356,o),
(206,482,o),
(215,608,cs),
(221,677,o),
(193,701,o),
(182,710,cs)
);
},
{
closed = 1;
nodes = (
(151,125,o),
(75,-7,o),
(122,30,cs),
(149,52,o),
(179,58,o),
(207,54,cs),
(252,49,o),
(290,22,o),
(299,1,cs),
(308,-22,o),
(410,127,o),
(401,147,cs),
(394,165,o),
(361,189,o),
(317,195,cs),
(279,200,o),
(234,192,o),
(188,156,cs)
);
}
);
width = 402;
}
);
unicode = 108;
},
{
glyphname = m;
lastChange = "2023-11-15 07:11:51 +0000";
layers = (
{
layerId = m01;
shapes = (
{
closed = 1;
nodes = (
(210,719,o),
(82,592,o),
(99,580,cs),
(131,557,o),
(165,421,o),
(190,277,cs),
(207,179,o),
(219,77,o),
(224,4,cs),
(225,-23,o),
(354,103,o),
(352,128,cs),
(348,203,o),
(336,310,o),
(318,412,cs),
(294,552,o),
(260,683,o),
(225,708,cs)
);
},
{
closed = 1;
nodes = (
(-16,-25,o),
(61,10,o),
(72,54,cs),
(98,157,o),
(116,259,o),
(129,347,cs),
(151,496,o),
(157,604,o),
(158,609,cs),
(161,647,o),
(91,601,o),
(88,567,cs),
(88,566,o),
(79,469,o),
(58,334,cs),
(43,241,o),
(23,132,o),
(-4,24,cs)
);
},
{
closed = 1;
nodes = (
(207,56,o),
(299,115,o),
(324,165,cs),
(359,236,o),
(389,307,o),
(413,372,cs),
(467,516,o),
(494,629,o),
(494,631,cs),
(506,677,o),
(408,600,o),
(398,559,cs),
(396,555,o),
(384,503,o),
(360,427,cs),
(333,343,o),
(292,229,o),
(236,115,cs)
);
},
{
closed = 1;
nodes = (
(519,706,o),
(391,576,o),
(419,576,cs),
(436,576,o),
(435,456,o),
(437,323,cs),
(439,195,o),
(444,57,o),
(470,2,cs),
(479,-17,o),
(607,110,o),
(598,128,cs),
(545,242,o),
(586,706,o),
(541,706,cs)
);
},
{
closed = 0;
nodes = (
(573,374,l)
);
}
);
width = 633;
}
);
unicode = 109;
},
{
glyphname = n;
lastChange = "2023-11-15 11:49:40 +0000";
layers = (
{
layerId = m01;
shapes = (
{
closed = 1;
nodes = (
(162,722,o),
(41,603,o),
(51,585,cs),
(93,511,o),
(138,403,o),
(186,298,cs),
(243,172,o),
(303,51,o),
(361,0,cs),
(375,-13,o),
(496,107,o),
(481,120,cs),
(448,149,o),
(457,149,o),
(493,598,cs),
(498,661,o),
(487,673,o),
(469,707,cs),
(459,726,o),
(335,609,o),
(345,591,cs),
(363,559,o),
(364,555,o),
(359,496,cs),
(323,39,o),
(320,37,o),
(361,0,cs),
(375,-13,o),
(496,107,o),
(481,120,cs),
(426,169,o),
(369,284,o),
(313,406,cs),
(263,513,o),
(215,627,o),
(173,703,cs)
);
},
{
closed = 1;
nodes = (
(12,-26,o),
(91,14,o),
(99,58,cs),
(103,82,o),
(112,171,o),
(122,269,cs),
(136,417,o),
(150,587,o),
(150,587,cs),
(154,632,o),
(75,588,o),
(72,545,cs),
(71,537,o),
(61,422,o),
(50,302,cs),
(39,180,o),
(27,53,o),
(21,22,cs)
);
}
);
width = 534;
}
);
unicode = 110;
},
{
glyphname = o;
lastChange = "2023-11-15 06:47:23 +0000";
layers = (
{
layerId = m01;
shapes = (
{
closed = 1;
nodes = (
(413,169,o),
(477,355,o),
(470,496,cs),
(465,617,o),
(407,705,o),
(332,712,cs),
(290,716,o),
(242,694,o),
(193,639,cs),
(59,482,o),
(13,307,o),
(21,178,cs),
(26,84,o),
(61,13,o),
(112,-8,cs),
(144,-22,o),
(183,-15,o),
(225,18,cs)
);
},
{
closed = 1;
nodes = (
(236,124,o),
(208,123,o),
(189,142,cs),
(162,166,o),
(151,225,o),
(149,291,cs),
(146,395,o),
(169,517,o),
(197,549,cs),
(217,573,o),
(235,580,o),
(251,574,cs),
(288,562,o),
(312,489,o),
(321,405,cs),
(331,304,o),
(318,189,o),
(273,154,cs)
);
}
);
width = 491;
}
);
unicode = 111;
},
{
glyphname = p;
lastChange = "2023-11-15 08:16:18 +0000";
layers = (
{
guides = (
{
pos = (717,374);
},
{
pos = (629,569);
}
);
layerId = m01;
shapes = (
{
closed = 1;
nodes = (
(119,272,o),
(182,244,o),
(261,311,cs),
(340,378,o),
(389,443,o),
(414,499,cs),
(456,590,o),
(438,662,o),
(392,695,cs),
(309,757,o),
(135,697,o),
(59,414,cs),
(29,303,o),
(113,302,o),
(143,414,cs),
(178,542,o),
(248,579,o),
(285,560,cs),
(305,549,o),
(315,521,o),
(304,483,cs),
(293,444,o),
(261,393,o),
(195,337,cs)
);
},
{
closed = 1;
nodes = (
(152,448,o),
(75,469,o),
(62,418,cs),
(37,318,o),
(25,26,o),
(25,19,cs),
(22,-26,o),
(101,23,o),
(103,63,cs),
(104,74,o),
(119,315,o),
(140,398,cs)
);
},
{
closed = 1;
nodes = (
(281,316,o),
(349,421,o),
(277,374,cs),
(240,350,o),
(128,373,o),
(116,423,cs),
(107,459,o),
(39,319,o),
(48,285,cs),
(62,231,o),
(110,204,o),
(217,274,cs)
);
}
);
width = 418;
}
);
unicode = 112;
},
{
glyphname = q;
lastChange = "2023-11-15 07:17:12 +0000";
layers = (
{
background = {
shapes = (
{
closed = 1;
nodes = (
);
}
);
};
layerId = m01;
shapes = (
{
closed = 1;
nodes = (
(275,346,o),
(218,289,o),
(226,262,cs),
(235,234,o),
(324,-8,o),
(324,-8,cs),
(335,-36,o),
(392,20,o),
(382,48,cs),
(377,62,o),
(296,277,o),
(284,316,cs)
);
},
{
closed = 1;
nodes = (
(325,74,o),
(384,138,o),
(426,204,cs),
(487,301,o),
(508,401,o),
(502,486,cs),
(496,581,o),
(456,658,o),
(400,692,cs),
(346,723,o),
(279,715,o),
(213,644,cs),
(54,471,o),
(6,283,o),
(24,153,cs),
(35,71,o),
(71,11,o),
(122,-8,cs),
(157,-21,o),
(198,-15,o),
(243,16,cs)
);
},
{
closed = 1;
nodes = (
(261,98,o),
(235,97,o),
(216,113,cs),
(196,129,o),
(183,161,o),
(175,202,cs),
(152,322,o),
(177,512,o),
(207,544,cs),
(280,624,o),
(330,526,o),
(346,404,cs),
(355,336,o),
(354,260,o),
(339,202,cs),
(330,165,o),
(316,136,o),
(295,122,cs)
);
}
);
width = 523;
}
);
unicode = 113;
},
{
glyphname = r;
lastChange = "2023-11-15 07:44:22 +0000";
layers = (
{
layerId = m01;
shapes = (
{
closed = 1;
nodes = (
(79,292,o),
(45,160,o),
(97,210,cs),
(147,258,o),
(209,277,o),
(252,255,cs),
(297,232,o),
(320,162,o),
(279,34,cs),
(252,-53,o),
(404,41,o),
(431,124,cs),
(481,285,o),
(441,370,o),
(370,399,cs),
(297,430,o),
(192,400,o),
(123,334,cs)
);
},
{
closed = 1;
nodes = (
(117,272,o),
(180,244,o),
(259,311,cs),
(431,458,o),
(462,584,o),
(427,654,cs),
(395,719,o),
(306,735,o),
(220,677,cs),
(157,633,o),
(95,549,o),
(59,414,cs),
(29,303,o),
(113,302,o),
(143,414,cs),
(180,550,o),
(268,581,o),
(299,546,cs),
(326,516,o),
(312,439,o),
(193,337,cs)
);
},
{
closed = 1;
nodes = (
(152,448,o),
(75,469,o),
(62,418,cs),
(37,318,o),
(25,26,o),
(25,19,cs),
(22,-26,o),
(101,23,o),
(103,63,cs),
(104,74,o),
(119,315,o),
(140,398,cs)
);
}
);
width = 498;
}
);
unicode = 114;
},
{
glyphname = s;
lastChange = "2023-11-15 07:28:15 +0000";
layers = (
{
guides = (
{
pos = (291,713);
}
);
layerId = m01;
shapes = (
{
closed = 1;
nodes = (
(70,270,o),
(4,106,o),
(17,80,cs),
(30,56,o),
(65,15,o),
(114,-4,cs),
(172,-28,o),
(250,-21,o),
(325,86,cs),
(498,333,o),
(400,352,o),
(295,420,cs),
(136,524,o),
(167,552,o),
(172,559,cs),
(181,571,o),
(222,571,o),
(266,552,cs),
(307,535,o),
(350,501,o),
(375,447,cs),
(386,422,o),
(449,592,o),
(439,613,cs),
(429,637,o),
(387,687,o),
(332,707,cs),
(279,725,o),
(213,715,o),
(150,625,cs),
(-5,404,o),
(66,358,o),
(171,290,cs),
(331,185,o),
(318,174,o),
(303,152,cs),
(292,137,o),
(250,135,o),
(203,150,cs),
(157,165,o),
(107,196,o),
(83,246,cs)
);
}
);
width = 455;
}
);
unicode = 115;
},
{
glyphname = t;
lastChange = "2023-11-15 12:17:49 +0000";
layers = (
{
layerId = m01;
shapes = (
{
closed = 1;
nodes = (
(435,541,o),
(503,708,o),
(461,701,cs),
(362,684,o),
(149,717,o),
(86,684,cs),
(64,672,o),
(18,500,o),
(42,512,cs),
(95,539,o),
(300,518,o),
(401,535,cs)
);
},
{
closed = 1;
nodes = (
(290,570,o),
(156,443,o),
(165,423,cs),
(178,393,o),
(117,82,o),
(150,2,cs),
(159,-18,o),
(290,113,o),
(282,132,cs),
(251,206,o),
(314,513,o),
(299,549,cs)
);
}
);
width = 444;
}
);
unicode = 116;
},
{
glyphname = u;
lastChange = "2023-11-15 12:18:45 +0000";
layers = (
{
layerId = m01;
shapes = (
{
closed = 1;
nodes = (
(158,730,o),
(30,604,o),
(47,583,cs),
(56,572,o),
(65,548,o),
(61,501,cs),
(52,401,o),
(44,301,o),
(36,201,cs),
(25,79,o),
(115,-49,o),
(236,-7,cs),
(349,33,o),
(407,149,o),
(424,246,cs),
(444,352,o),
(450,685,o),
(451,694,cs),
(452,737,o),
(373,690,o),
(371,648,cs),
(371,636,o),
(362,350,o),
(346,260,cs),
(323,136,o),
(276,117,o),
(274,117,cs),
(195,89,o),
(171,181,o),
(180,295,cs),
(189,395,o),
(197,495,o),
(205,595,cs),
(211,662,o),
(188,692,o),
(175,709,cs)
);
}
);
width = 481;
}
);
unicode = 117;
},
{
glyphname = v;
lastChange = "2023-11-15 07:33:01 +0000";
layers = (
{
layerId = m01;
shapes = (
{
closed = 1;
nodes = (
(505,744,o),
(421,705,o),
(406,655,cs),
(348,472,o),
(235,101,o),
(222,45,cs),
(213,9,o),
(315,104,o),
(322,133,cs),
(331,171,o),
(436,526,o),
(488,691,cs)
);
},
{
closed = 1;
nodes = (
(190,-27,o),
(323,106,o),
(308,119,cs),
(290,133,o),
(271,144,o),
(257,229,cs),
(245,304,o),
(241,428,o),
(216,599,cs),
(206,666,o),
(190,707,o),
(162,714,cs),
(143,719,o),
(14,591,o),
(38,586,cs),
(50,583,o),
(71,546,o),
(80,481,cs),
(105,316,o),
(101,194,o),
(113,123,cs),
(128,28,o),
(150,5,o),
(174,-15,cs)
);
}
);
width = 475;
}
);
unicode = 118;
},
{
glyphname = w;
lastChange = "2023-11-15 11:47:38 +0000";
layers = (
{
guides = (
{
pos = (390,713);
}
);
layerId = m01;
shapes = (
{
closed = 1;
nodes = (
(366,-17,o),
(486,103,o),
(477,120,cs),
(445,177,o),
(438,312,o),
(432,440,cs),
(426,566,o),
(421,685,o),
(394,711,cs),
(381,724,o),
(259,605,o),
(274,591,cs),
(322,545,o),
(290,119,o),
(355,2,cs)
);
},
{
closed = 1;
nodes = (
(718,744,o),
(627,702,o),
(601,643,cs),
(571,575,o),
(545,510,o),
(523,449,cs),
(438,218,o),
(407,54,o),
(406,50,cs),
(400,17,o),
(495,119,o),
(502,148,cs),
(503,156,o),
(531,275,o),
(602,465,cs),
(626,530,o),
(656,603,o),
(691,683,cs)
);
},
{
closed = 1;
nodes = (
(129,-17,o),
(249,103,o),
(240,120,cs),
(211,172,o),
(202,287,o),
(196,403,cs),
(189,543,o),
(185,683,o),
(156,711,cs),
(143,724,o),
(21,605,o),
(36,591,cs),
(58,569,o),
(63,459,o),
(70,338,cs),
(76,207,o),
(85,62,o),
(118,2,cs)
);
},
{
closed = 1;
nodes = (
(428,637,o),
(335,612,o),
(324,587,cs),
(297,528,o),
(275,469,o),
(257,413,cs),
(201,232,o),
(189,79,o),
(188,73,cs),
(183,44,o),
(233,84,o),
(238,111,cs),
(239,114,o),
(281,271,o),
(348,448,cs),
(369,502,o),
(392,557,o),
(416,611,cs)
);
}
);
width = 656;
}
);
unicode = 119;
},
{
glyphname = x;
lastChange = "2023-11-15 07:34:21 +0000";
layers = (
{
layerId = m01;
shapes = (
{
closed = 1;
nodes = (
(544,706,o),
(469,719,o),
(436,670,cs),
(425,653,o),
(344,535,o),
(254,406,cs),
(136,235,o),
(4,45,o),
(4,45,cs),
(-30,-4,o),
(45,-17,o),
(78,31,cs),
(87,44,o),
(191,194,o),
(295,344,cs),
(393,486,o),
(492,628,o),
(512,658,cs)
);
},
{
closed = 1;
nodes = (
(399,4,o),
(507,148,o),
(478,142,cs),
(445,137,o),
(383,281,o),
(319,424,cs),
(256,567,o),
(191,708,o),
(153,698,cs),
(127,692,o),
(17,548,o),
(49,556,cs),
(81,563,o),
(141,426,o),
(204,287,cs),
(268,141,o),
(334,-7,o),
(372,0,cs)
);
}
);
width = 515;
}
);
unicode = 120;
},
{
glyphname = y;
lastChange = "2023-11-15 12:01:30 +0000";
layers = (
{
layerId = m01;
shapes = (
{
closed = 1;
nodes = (
(552,723,o),
(472,729,o),
(435,665,cs),
(416,632,o),
(115,48,o),
(114,47,cs),
(98,16,o),
(109,1,o),
(129,0,cs),
(150,-1,o),
(181,16,o),
(198,49,cs),
(211,75,o),
(490,616,o),
(515,659,cs)
);
},
{
closed = 1;
nodes = (
(254,329,o),
(369,457,o),
(321,434,cs),
(292,421,o),
(265,471,o),
(238,533,cs),
(200,619,o),
(161,726,o),
(113,710,cs),
(79,698,o),
(-43,568,o),
(-1,582,cs),
(33,594,o),
(61,515,o),
(94,438,cs),
(127,361,o),
(164,287,o),
(213,310,cs)
);
}
);
width = 480;
}
);
unicode = 121;
},
{
glyphname = z;
lastChange = "2023-11-15 07:35:27 +0000";
layers = (
{
layerId = m01;
shapes = (
{
closed = 1;
nodes = (
(9,117,o),
(-32,-49,o),
(18,-5,cs),
(58,31,o),
(115,45,o),
(171,43,cs),
(231,42,o),
(291,22,o),
(330,-8,cs),
(346,-21,o),
(408,148,o),
(392,160,cs),
(357,188,o),
(299,211,o),
(237,214,cs),
(174,218,o),
(105,202,o),
(50,153,cs)
);
},
{
closed = 1;
nodes = (
(124,736,o),
(59,569,o),
(74,550,cs),
(96,522,o),
(148,503,o),
(205,499,cs),
(270,495,o),
(342,510,o),
(389,552,cs),
(415,575,o),
(470,744,o),
(439,716,cs),
(399,681,o),
(327,667,o),
(263,671,cs),
(208,675,o),
(159,691,o),
(138,718,cs)
);
},
{
closed = 1;
nodes = (
(430,635,o),
(346,630,o),
(325,581,cs),
(298,518,o),
(242,438,o),
(185,358,cs),
(116,262,o),
(46,165,o),
(23,94,cs),
(6,44,o),
(94,57,o),
(109,104,cs),
(127,158,o),
(203,258,o),
(277,364,cs),
(329,440,o),
(380,518,o),
(409,585,cs)
);
}
);
width = 453;
}
);
unicode = 122;
},
{
export = 0;
glyphname = d.001;
lastChange = "2023-11-14 16:02:44 +0000";
layers = (
{
layerId = m01;
shapes = (
{
closed = 1;
nodes = (
(106.063,737.75,o),
(42.396,569.92,o),
(59.523,556.812,cs),
(335.474,345.615,o),
(411.724,199.98,o),
(322.84,14.805,cs),
(298.886,-35.1,o),
(424.405,73.79,o),
(447.16,121.195,cs),
(551.617,338.815,o),
(400.343,512.526,o),
(122.477,725.188,cs)
);
},
{
closed = 1;
nodes = (
(179.961,590.719,o),
(104.185,569.068,o),
(101.124,547.26,cs),
(79.791,395.26,o),
(58.457,243.26,o),
(37.124,91.26,cs),
(34.002,69.014,o),
(109.942,91.833,o),
(112.876,112.74,cs),
(134.209,264.74,o),
(155.543,416.74,o),
(176.876,568.74,cs)
);
},
{
closed = 1;
nodes = (
(73.098,222.804,o),
(9.433,54.976,o),
(26.523,41.812,cs),
(101.943,-16.282,o),
(237.779,-23.622,o),
(325.646,2.942,cs),
(346.623,9.285,o),
(404.928,180.487,o),
(380.354,173.058,cs),
(296.221,147.622,o),
(162.057,154.282,o),
(89.477,210.188,cs)
);
}
);
width = 492;
}
);
},
{
glyphname = period;
lastChange = "2023-11-14 16:02:44 +0000";
layers = (
{
layerId = m01;
shapes = (
{
closed = 1;
nodes = (
(253.585,157.09,o),
(193.614,-13.797,o),
(220.473,2.003,cs),
(233.831,9.86,o),
(291.03,-7.92,o),
(321.165,1.433,cs),
(341.844,7.85,o),
(403.345,178.174,o),
(378.835,170.567,cs),
(350.97,161.92,o),
(296.169,182.14,o),
(275.527,169.997,cs)
);
}
);
width = 600;
}
);
unicode = 46;
},
{
glyphname = comma;
lastChange = "2023-11-14 16:02:44 +0000";
layers = (
{
layerId = m01;
shapes = (
{
closed = 1;
nodes = (
(265.058,165.725,o),
(204.392,-3.725,o),
(224.998,-3.725,cs),
(276.733,-3.725,o),
(286.335,-54.266,o),
(276.449,-95.928,cs),
(262.854,-153.223,o),
(344.722,-76.137,o),
(357.551,-22.072,cs),
(375.823,54.931,o),
(347.229,165.725,o),
(285.002,165.725,cs)
);
}
);
width = 600;
}
);
unicode = 44;
},
{
glyphname = semicolon;
lastChange = "2023-11-14 16:02:44 +0000";
layers = (
{
layerId = m01;
shapes = (
{
closed = 1;
nodes = (
(253.585,469.09,o),
(193.614,298.203,o),
(220.473,314.003,cs),
(233.831,321.86,o),
(291.03,304.08,o),
(321.165,313.433,cs),
(341.844,319.85,o),
(403.345,490.174,o),
(378.835,482.567,cs),
(350.97,473.92,o),
(296.169,494.14,o),
(275.527,481.997,cs)
);
},
{
closed = 1;
nodes = (
(265.058,165.725,o),
(204.392,-3.725,o),
(224.998,-3.725,cs),
(276.733,-3.725,o),
(286.335,-54.266,o),
(276.449,-95.928,cs),
(262.854,-153.223,o),
(344.722,-76.137,o),
(357.551,-22.072,cs),
(375.823,54.931,o),
(347.229,165.725,o),
(285.002,165.725,cs)
);
}
);
width = 600;
}
);
unicode = 59;
},
{
glyphname = hyphen;
lastChange = "2023-11-14 16:02:44 +0000";
layers = (
{
layerId = m01;
shapes = (
{
closed = 1;
nodes = (
(381.226,235.155,o),
(426.428,408.629,o),
(398.23,383.636,cs),
(358.984,348.849,o),
(157.211,421.454,o),
(94.872,361.302,cs),
(71.411,338.664,o),
(26.825,165.388,o),
(55.128,192.698,cs),
(106.789,242.546,o),
(309.016,171.151,o),
(357.77,214.364,cs)
);
}
